kopru_tumbacak
version=1
nRows=18
nColumns=53
inDegrees=yes
endheader
time	sacrum_pitch	sacrum_roll	sacrum_yaw	sacrum_x	sacrum_y	sacrum_z	sacroiliac_flx	hip_flx	hip_add	hip_int	knee_flx	ankle_flx	ankle_add	ankle_int	BFa.activation	BFp.activation	CF.activation	STp.activation	STa.activation	SM.activation	QF.activation	TFL.activation	GMa.activation	GMe.activation	GMi.activation	Pir.activation	GP.activation	GA.activation	AL.activation	AM.activation	AB.activation	Pec.activation	IP.activation	OE.activation	OI.activation	GS.activation	GI.activation	RF.activation	VL.activation	VI.activation	VM.activation	MG.activation	LG.activation	Pla.activation	Sol.activation	TA.activation	EDL.activation	TP.activation	FDL.activation	FHL.activation	Per.activation	Pop.activation
0.747600	20.633716	0.000000	0.000000	0.000000	0.050000	0.000000	3.700000	-8.510842	-10.000000	0.000000	-91.418479	-26.677531	-5.000000	0.000000	0.000000	0.143961	1.000000	0.142610	0.143974	1.000000	1.000000	1.000000	1.000000	1.000000	0.000000	0.000000	0.146158	0.143537	1.000000	1.000000	1.000000	0.000000	1.000000	0.000000	0.000000	1.000000	1.000000	0.872619	1.000000	1.000000	1.000000	0.254067	0.254455	0.283716	0.574981	0.713386	1.000000	0.267126	0.267032	0.267032	1.000000	0.121733
0.752550	20.633716	0.000000	0.000000	0.000000	0.050000	0.000000	3.700000	-8.538997	-10.000000	0.000000	-91.035891	-27.515785	-5.000000	0.000000	0.000000	0.130372	1.000000	0.129149	0.130384	1.000000	1.000000	1.000000	1.000000	1.000000	0.000000	0.000000	0.132362	0.129988	1.000000	1.000000	1.000000	0.000000	1.000000	0.000000	0.000000	1.000000	1.000000	1.000000	1.000000	1.000000	1.000000	0.230085	0.230436	0.256935	0.520707	0.837314	1.000000	0.241911	0.241826	0.241826	1.000000	0.110242
0.757500	20.633716	0.000000	0.000000	0.000000	0.050000	0.000000	3.700000	-8.587785	-10.000000	0.000000	-91.237383	-28.229370	-5.000000	0.000000	0.000000	0.118066	0.928311	0.116958	0.118077	0.926302	0.926302	1.000000	1.000000	1.000000	0.000000	0.000000	0.119868	0.117718	0.926655	0.926637	0.926632	0.000000	1.000000	0.000000	0.000000	0.925748	0.926617	0.996525	0.926290	0.926290	0.926290	0.208367	0.208685	0.232683	0.471557	0.758278	1.000000	0.219077	0.219000	0.219000	1.000000	0.099836
0.762450	20.633716	0.000000	0.000000	0.000000	0.050000	0.000000	3.700000	-8.541286	-10.000000	0.000000	-91.445702	-29.761274	-5.000000	0.000000	0.000000	0.106922	0.840686	0.105918	0.106931	0.838867	0.838867	1.000000	1.000000	1.000000	0.000000	0.000000	0.108553	0.106606	0.839186	0.839170	0.839165	0.000000	1.000000	0.000000	0.000000	0.838365	0.839152	1.000000	0.838856	0.838856	0.838856	0.188699	0.188987	0.210719	0.427045	0.874551	1.000000	0.198398	0.198328	0.198328	1.000000	0.090412
0.767400	20.633716	0.000000	0.000000	0.000000	0.050000	0.000000	3.700000	-8.500000	-10.000000	0.000000	-91.166898	-29.770881	-5.000000	0.000000	0.000000	0.096829	0.761332	0.429254	0.096838	0.759684	0.759684	1.000000	1.000000	1.000000	0.000000	0.000000	0.098307	0.429877	0.759974	0.759959	0.759954	0.000000	1.000000	0.000000	0.000000	0.759230	0.759942	1.000000	0.759674	0.759674	0.759674	0.170887	0.171148	0.190829	0.386736	0.994503	1.000000	0.179671	0.179607	0.179607	1.000000	0.412220
0.772350	20.633716	0.000000	0.000000	0.000000	0.050000	0.000000	3.700000	-8.763004	-10.000000	0.000000	-91.500000	-29.511330	-5.000000	0.000000	0.000000	0.390467	0.689468	0.388736	0.390475	0.687976	0.687976	1.000000	1.000000	1.000000	0.000000	0.000000	0.393630	0.389300	0.688238	0.688225	0.688221	0.000000	1.000000	0.000000	0.000000	0.687565	0.688210	1.000000	0.687967	0.687967	0.687967	0.154757	0.154993	0.172816	0.350231	0.900629	1.000000	0.162711	0.162654	0.162654	1.000000	0.373310
0.777300	20.633716	0.000000	0.000000	0.000000	0.050000	0.000000	3.700000	-8.500000	-10.000000	0.000000	-91.483233	-30.678549	-5.000000	0.000000	0.000000	0.353610	0.624388	0.352042	0.353617	0.623037	0.623037	1.000000	1.000000	1.000000	0.000000	0.000000	0.356474	0.352553	0.623274	0.623262	0.623258	0.000000	1.000000	0.000000	0.000000	0.622664	0.623248	1.000000	0.623029	0.623029	0.623029	0.140149	0.140363	0.156504	0.317172	1.000000	1.000000	0.147352	0.147301	0.147301	1.000000	0.338073
0.782250	20.633716	0.000000	0.000000	0.000000	0.050000	0.000000	3.700000	-8.525950	-10.000000	0.000000	-91.120716	-30.774675	-5.000000	0.000000	0.000000	0.320232	0.565450	0.318812	0.320238	0.564227	0.564227	1.000000	1.000000	1.000000	0.000000	0.000000	0.322826	0.319275	0.564442	0.564431	0.564428	0.000000	1.000000	0.000000	0.000000	0.563889	0.564419	1.000000	0.564220	0.564220	0.564220	0.126920	0.127114	0.141731	0.287233	0.918741	1.000000	0.133444	0.133397	0.133397	1.000000	0.306161
0.787200	20.633716	0.000000	0.000000	0.000000	0.050000	0.000000	3.700000	-8.505750	-10.000000	0.000000	-91.097374	-30.525339	-5.000000	0.000000	0.000000	0.290005	0.512076	0.288719	0.290011	0.510968	0.510969	1.000000	1.000000	1.000000	0.000000	0.000000	0.292354	0.289138	0.511163	0.511153	0.511150	0.000000	1.000000	0.000000	0.000000	0.510663	0.511142	1.000000	0.510962	0.510962	0.510962	0.114940	0.115115	0.128353	0.260121	1.000000	1.000000	0.120848	0.120805	0.120805	1.000000	0.277262
0.792150	20.633716	0.000000	0.000000	0.000000	0.050000	0.000000	3.700000	-8.818282	-10.000000	0.000000	-91.159181	-28.971495	-5.000000	0.000000	0.000000	0.262630	0.463740	0.261466	0.262636	0.462737	0.462737	1.000000	1.000000	1.000000	0.000000	0.000000	0.264758	0.261846	0.462913	0.462904	0.462902	0.000000	1.000000	0.000000	0.000000	0.462460	0.462894	1.000000	0.462731	0.462731	0.462731	0.104090	0.104249	0.116237	0.235568	0.930376	1.000000	0.109441	0.109402	0.109402	1.000000	0.251091
0.797100	20.633716	0.000000	0.000000	0.000000	0.050000	0.000000	3.700000	-8.511588	-10.000000	0.000000	-91.500000	-29.419282	-5.000000	0.000000	0.000000	0.237840	0.419967	0.236786	0.237845	0.419058	0.419058	1.000000	1.000000	1.000000	0.000000	0.000000	0.239767	0.237129	0.419218	0.419210	0.419207	0.000000	1.000000	0.000000	0.000000	0.418808	0.419201	1.000000	0.419053	0.419053	0.419053	0.094265	0.094409	0.105265	0.213332	1.000000	1.000000	0.099110	0.099075	0.099075	1.000000	0.227390
0.802050	20.633716	0.000000	0.000000	0.000000	0.050000	0.000000	3.700000	-8.948117	-10.000000	0.000000	-91.041352	-30.149761	-5.000000	0.000000	0.000000	0.215390	0.380325	0.214435	0.215394	0.379503	0.379503	1.000000	1.000000	1.000000	0.000000	0.000000	0.217135	0.214746	0.379647	0.379640	0.379638	0.000000	1.000000	0.000000	0.000000	0.379276	0.379632	1.000000	0.379498	0.379498	0.379498	0.085367	0.085497	0.095329	0.193195	0.936758	1.000000	0.089755	0.089723	0.089723	1.000000	0.205926
0.807000	20.633716	0.000000	0.000000	0.000000	0.050000	0.000000	3.700000	-8.977175	-10.000000	0.000000	-91.199696	-29.876227	-5.000000	0.000000	0.000000	0.195059	0.344426	0.194194	0.195063	0.343681	0.343681	1.000000	1.000000	1.000000	0.000000	0.000000	0.196639	0.194476	0.343811	0.343805	0.343803	0.000000	1.000000	0.000000	0.000000	0.343475	0.343797	1.000000	0.343676	0.343676	0.343676	0.077309	0.077427	0.086331	0.174959	1.000000	1.000000	0.081283	0.081254	0.081254	1.000000	0.186488
0.811950	20.633716	0.000000	0.000000	0.000000	0.050000	0.000000	3.700000	-8.858924	-10.000000	0.000000	-91.275553	-29.219636	-5.000000	0.000000	0.000000	0.176647	0.311915	0.175864	0.176650	0.311240	0.311240	1.000000	1.000000	1.000000	0.000000	0.000000	0.178078	0.176119	0.311358	0.311352	0.311351	0.000000	1.000000	0.000000	0.000000	0.311054	0.311346	1.000000	0.311236	0.311236	0.311236	0.070012	0.070119	0.078182	0.158444	1.000000	1.000000	0.073610	0.073584	0.073584	1.000000	0.168885
0.816900	20.633716	0.000000	0.000000	0.000000	0.050000	0.000000	3.700000	-8.770156	-10.000000	0.000000	-91.325790	-28.865500	-5.000000	0.000000	0.000000	0.469186	0.282472	0.465702	0.469189	0.281861	0.281861	1.000000	1.000000	1.000000	0.000000	0.000000	0.474220	0.467780	0.281969	0.281963	0.281962	0.000000	1.000000	0.000000	0.000000	0.281693	0.281957	1.000000	0.281858	0.281858	0.281858	0.063403	0.063500	0.070802	0.143488	1.000000	1.000000	0.066662	0.066639	0.066639	1.000000	0.457546
0.821850	20.633716	0.000000	0.000000	0.000000	0.050000	0.000000	3.700000	-8.579214	-10.000000	0.000000	-91.747911	-28.275785	-5.000000	0.000000	0.000000	0.424898	0.255809	0.421743	0.424901	0.255256	0.255256	1.000000	1.000000	1.000000	0.000000	0.000000	0.429458	0.423625	0.255353	0.255348	0.255347	0.000000	1.000000	0.000000	0.000000	0.255103	0.255343	1.000000	0.255252	0.255252	0.255252	0.057419	0.057506	0.064119	0.129944	1.000000	1.000000	0.060370	0.060349	0.060349	1.000000	0.414358
0.826800	20.633716	0.000000	0.000000	0.000000	0.050000	0.000000	3.700000	-8.276576	-10.000000	0.000000	-92.301724	-27.283986	-5.000000	0.000000	0.000000	0.384791	0.231663	0.381934	0.384794	0.231162	0.231162	1.000000	1.000000	1.000000	0.000000	0.000000	0.388920	0.383638	0.231250	0.231245	0.231244	0.000000	1.000000	0.000000	0.000000	0.231023	0.231240	1.000000	0.231159	0.231159	0.231159	0.051999	0.052078	0.058067	0.117678	1.000000	1.000000	0.054671	0.054652	0.054652	1.000000	0.375246
0.831750	20.633716	0.000000	0.000000	0.000000	0.050000	0.000000	3.700000	-7.825523	-10.000000	0.000000	-93.011814	-26.062265	-5.000000	0.000000	0.000000	0.348470	0.209796	0.345883	0.348473	0.209342	0.209342	1.000000	1.000000	1.000000	0.000000	0.000000	0.352209	0.347426	0.209422	0.209418	0.209416	0.000000	1.000000	0.000000	0.000000	0.209217	0.209413	1.000000	0.209339	0.209339	0.209339	0.047090	0.047162	0.052586	0.106571	1.000000	1.000000	0.049511	0.049493	0.049493	1.000000	0.339825
